# xmcd CD database file
#
# Track frame offsets:
#	150
#	10287
#	32841
#	48186
#	65666
#	78444
#	95423
#	114115
#	135034
#	146241
#	167376
#	183832
#	204707
#
# Disc length: 2921 seconds
#
# Revision: 0
# Processed by: cddbd v1.4PL0 Copyright (c) Steve Scherf et al.
# Submitted via: CDex 1.51
#
DISCID=a20b670d
DTITLE=Helin-Mari Arderi Trio - Hetk Vaikust
DYEAR=2003
DGENRE=Jazz
TTITLE0=Meditatsioon
TTITLE1=Kuldkollane
TTITLE2=Karikakar
TTITLE3=Kas See On Ime?
TTITLE4=Õnnelik Õhtu
TTITLE5=Palus Pohli Punetab
TTITLE6=Sinuga
TTITLE7=Sügisromanss
TTITLE8=Ei Tea
TTITLE9=Öö Tuleb Siis
TTITLE10=Esimene Lumi
TTITLE11=Hetk Vaikust
TTITLE12=Väike Päike
EXTD=YEAR: 2003
EXTT0=
EXTT1=
EXTT2=
EXTT3=
EXTT4=
EXTT5=
EXTT6=
EXTT7=
EXTT8=
EXTT9=
EXTT10=
EXTT11=
EXTT12=
PLAYORDER=
